<svg width="200" height="200" viewBox="0 0 200 200" fill="none" xmlns="http://www.w3.org/2000/svg">
  <defs>
    <linearGradient id="qr-gradient" x1="0" y1="0" x2="200" y2="200" gradientUnits="userSpaceOnUse">
      <stop offset="0%" stop-color="#FFD700"/>
      <stop offset="100%" stop-color="#FFF4CC"/>
    </linearGradient>
    <filter id="glow" x="-50%" y="-50%" width="200%" height="200%">
      <feGaussianBlur in="SourceGraphic" stdDeviation="2" result="blur"/>
      <feComposite in="blur" in2="SourceGraphic" operator="over"/>
    </filter>
  </defs>
  <rect width="200" height="200" rx="10" fill="#1A1A1A"/>
  <path d="M50 50h30v30h-30z M90 50h10v10h-10z M110 50h40v30h-30v-10h-10z M50 90h10v20h-10z M70 90h20v10h-20z M110 90h10v10h-10z M130 90h20v10h-20z M50 120h30v30h-30z M110 110h40v10h-40z M110 130h10v20h-10z M130 130h20v20h-20z" fill="url(#qr-gradient)" filter="url(#glow)"/>
  <rect x="10" y="10" width="180" height="180" rx="5" stroke="url(#qr-gradient)" stroke-width="2" stroke-dasharray="10 5"/>
</svg>